# xmcd CD database file
#
# Track frame offsets:
#	150
#	18751
#	36312
#	54182
#	61631
#	77965
#	99626
#	106852
#	123536
#	143035
#	160668
#	177577
#	195722
#	208763
#	211736
#	238739
#	254408
#	258902
#
# Disc length: 3779 seconds
#
# Revision: 0
# Processed by: cddbd v1.5.1PL2 Copyright (c) Steve Scherf et al.
# Submitted via: Feurio! 1.68 - http://www.feurio.com
#
DISCID=f50ec112
DTITLE=Les Reines Prochaines - Le Coeur En Beurre
DYEAR=1900
DGENRE=Ohne Schublade
TTITLE0=The Lady Is Hungry
TTITLE1=I Hate Diets
TTITLE2=Ich bin das Zebra
TTITLE3=Das war auf Samoa
TTITLE4=No Water In My Eyes
TTITLE5=Opfer dieses Lied
TTITLE6=Das Glück hat mich fest in der Hand
TTITLE7=Les salles d'intimitees
TTITLE8=Dogs Are Sleeping
TTITLE9=Das Sitzen ist fertig
TTITLE10=Oh Jolanda
TTITLE11=Die Rettung
TTITLE12=Drehen, drehen Purzelbaum
TTITLE13=Abschied am Quai
TTITLE14=Christmas in Chinatown
TTITLE15=Come una rosa del mattino
TTITLE16=Sterne stehen nie still
TTITLE17=Tu me suis, Marie
EXTD=
EXTT0=
EXTT1=
EXTT2=
EXTT3=
EXTT4=
EXTT5=
EXTT6=
EXTT7=
EXTT8=
EXTT9=
EXTT10=
EXTT11=
EXTT12=
EXTT13=
EXTT14=
EXTT15=
EXTT16=
EXTT17=
PLAYORDER=
